<svg xmlns="http://www.w3.org/2000/svg" viewBox="0 0 512 512">
  <defs><linearGradient id="g" x1="0" y1="0" x2="1" y2="1"><stop stop-color="#7da2ff"/><stop offset="1" stop-color="#46d19b"/></linearGradient></defs>
  <rect width="512" height="512" rx="116" fill="#0d1925"/><rect x="70" y="70" width="372" height="372" rx="92" fill="url(#g)"/>
  <path d="M137 331V181h69c42 0 69 22 69 59s-27 60-69 60h-25v31h-44Zm44-68h23c18 0 29-8 29-23 0-14-11-22-29-22h-23v45Zm111 68-34-37 28-25 27 29 62-79 34 27-94 119-23-34Z" fill="#071019"/>
</svg>
